<svg xmlns="http://www.w3.org/2000/svg" xmlns:xlink="http://www.w3.org/1999/xlink" width="500" zoomAndPan="magnify" viewBox="0 0 375 374.999991" height="500" preserveAspectRatio="xMidYMid meet" version="1.0"><defs><clipPath id="ffaddea1a6"><path d="M 4.6875 127 L 45 127 L 45 168 L 4.6875 168 Z M 4.6875 127 " clip-rule="nonzero"/></clipPath><clipPath id="18509637a0"><path d="M 4.6875 207 L 45 207 L 45 247 L 4.6875 247 Z M 4.6875 207 " clip-rule="nonzero"/></clipPath></defs><path fill="#feda15" d="M 250.585938 259.667969 L 128.882812 259.667969 C 116.359375 259.667969 106.035156 249.339844 106.035156 236.820312 L 106.035156 138.179688 C 106.035156 125.4375 116.359375 115.113281 128.882812 115.113281 L 250.585938 115.113281 C 263.328125 115.113281 273.652344 125.4375 273.652344 138.179688 L 273.652344 236.820312 C 273.652344 249.339844 263.328125 259.667969 250.585938 259.667969 Z M 133.054688 213.972656 C 132.617188 213.972656 132.175781 213.972656 131.738281 213.753906 C 129.761719 213.09375 128.882812 210.894531 129.761719 208.917969 L 137.667969 189.148438 L 137.667969 188.929688 L 151.949219 153.339844 C 151.949219 153.339844 151.949219 153.121094 151.949219 153.121094 C 152.167969 152.679688 152.386719 152.242188 152.828125 152.019531 C 153.046875 151.582031 153.484375 151.363281 153.925781 151.140625 C 153.925781 151.140625 153.925781 151.140625 154.144531 151.140625 C 154.585938 150.921875 154.804688 150.921875 155.242188 150.921875 C 155.683594 150.921875 156.121094 150.921875 156.5625 151.140625 C 156.5625 151.140625 156.78125 151.140625 156.78125 151.140625 C 157.222656 151.363281 157.660156 151.582031 157.878906 152.019531 C 158.320312 152.242188 158.539062 152.679688 158.757812 153.121094 C 158.757812 153.121094 158.757812 153.339844 158.757812 153.339844 L 173.039062 188.929688 L 173.039062 189.148438 L 180.945312 208.917969 C 181.605469 210.894531 180.726562 213.09375 178.96875 213.753906 C 176.992188 214.410156 174.796875 213.53125 174.136719 211.773438 L 167.105469 194.199219 L 143.601562 194.199219 L 136.570312 211.773438 C 135.910156 213.09375 134.59375 213.972656 133.054688 213.972656 Z M 216.753906 214.191406 L 197.203125 214.191406 C 195.226562 214.191406 193.6875 212.652344 193.6875 210.675781 C 193.6875 208.480469 195.226562 206.941406 197.203125 206.941406 L 213.019531 206.941406 L 213.019531 157.953125 L 197.203125 157.953125 C 195.226562 157.953125 193.6875 156.414062 193.6875 154.4375 C 193.6875 152.242188 195.226562 150.703125 197.203125 150.703125 L 236.085938 150.703125 C 238.0625 150.703125 239.820312 152.242188 239.820312 154.4375 C 239.820312 156.414062 238.0625 157.953125 236.085938 157.953125 L 220.269531 157.953125 L 220.269531 206.941406 L 236.085938 206.941406 C 238.0625 206.941406 239.820312 208.480469 239.820312 210.675781 C 239.820312 212.652344 238.0625 214.191406 236.085938 214.191406 Z M 164.25 186.730469 L 155.242188 164.542969 L 146.457031 186.730469 Z M 164.25 186.730469 " fill-opacity="1" fill-rule="evenodd"/><path fill="#feda15" d="M 170.402344 122.582031 C 168.425781 122.582031 166.667969 120.824219 166.667969 118.847656 L 166.667969 36.027344 C 166.667969 34.050781 168.425781 32.292969 170.402344 32.292969 C 172.378906 32.292969 173.917969 34.050781 173.917969 36.027344 L 173.917969 118.847656 C 173.917969 120.824219 172.378906 122.582031 170.402344 122.582031 Z M 170.402344 122.582031 " fill-opacity="1" fill-rule="evenodd"/><path fill="#feda15" d="M 170.402344 39.761719 C 159.417969 39.761719 150.410156 30.753906 150.410156 19.773438 C 150.410156 9.007812 159.417969 0 170.402344 0 C 181.386719 0 190.171875 9.007812 190.171875 19.773438 C 190.171875 30.753906 181.386719 39.761719 170.402344 39.761719 Z M 170.402344 39.761719 " fill-opacity="1" fill-rule="evenodd"/><path fill="#feda15" d="M 209.285156 122.582031 C 207.308594 122.582031 205.550781 120.824219 205.550781 118.847656 L 205.550781 84.578125 C 205.550781 82.601562 207.308594 80.84375 209.285156 80.84375 C 211.261719 80.84375 213.019531 82.601562 213.019531 84.578125 L 213.019531 118.847656 C 213.019531 120.824219 211.261719 122.582031 209.285156 122.582031 Z M 209.285156 122.582031 " fill-opacity="1" fill-rule="evenodd"/><path fill="#feda15" d="M 209.285156 88.3125 C 198.300781 88.3125 189.515625 79.304688 189.515625 68.320312 C 189.515625 57.558594 198.300781 48.550781 209.285156 48.550781 C 220.269531 48.550781 229.058594 57.558594 229.058594 68.320312 C 229.058594 79.304688 220.269531 88.3125 209.285156 88.3125 Z M 209.285156 88.3125 " fill-opacity="1" fill-rule="evenodd"/><path fill="#feda15" d="M 248.167969 122.582031 C 246.191406 122.582031 244.433594 120.824219 244.433594 118.847656 L 244.433594 65.246094 C 244.433594 54.480469 253.222656 45.695312 263.988281 45.695312 L 287.273438 45.695312 C 289.25 45.695312 291.007812 47.453125 291.007812 49.429688 C 291.007812 51.40625 289.25 53.164062 287.273438 53.164062 L 263.988281 53.164062 C 257.394531 53.164062 251.90625 58.4375 251.90625 65.246094 L 251.90625 118.847656 C 251.90625 120.824219 250.148438 122.582031 248.167969 122.582031 Z M 248.167969 122.582031 " fill-opacity="1" fill-rule="evenodd"/><path fill="#feda15" d="M 303.53125 69.199219 C 292.546875 69.199219 283.539062 60.414062 283.539062 49.429688 C 283.539062 38.445312 292.546875 29.65625 303.53125 29.65625 C 314.515625 29.65625 323.300781 38.445312 323.300781 49.429688 C 323.300781 60.414062 314.515625 69.199219 303.53125 69.199219 Z M 303.53125 69.199219 " fill-opacity="1" fill-rule="evenodd"/><path fill="#feda15" d="M 131.519531 122.582031 C 129.320312 122.582031 127.78125 120.824219 127.78125 118.847656 L 127.78125 65.246094 C 127.78125 58.4375 122.292969 53.164062 115.699219 53.164062 L 92.414062 53.164062 C 90.21875 53.164062 88.679688 51.40625 88.679688 49.429688 C 88.679688 47.453125 90.21875 45.695312 92.414062 45.695312 L 115.699219 45.695312 C 126.464844 45.695312 135.03125 54.480469 135.03125 65.246094 L 135.03125 118.847656 C 135.03125 120.824219 133.496094 122.582031 131.519531 122.582031 Z M 131.519531 122.582031 " fill-opacity="1" fill-rule="evenodd"/><path fill="#feda15" d="M 76.15625 69.199219 C 65.171875 69.199219 56.386719 60.414062 56.386719 49.429688 C 56.386719 38.445312 65.171875 29.65625 76.15625 29.65625 C 87.140625 29.65625 95.929688 38.445312 95.929688 49.429688 C 95.929688 60.414062 87.140625 69.199219 76.15625 69.199219 Z M 76.15625 69.199219 " fill-opacity="1" fill-rule="evenodd"/><path fill="#feda15" d="M 338.898438 151.363281 L 269.917969 151.363281 C 267.941406 151.363281 266.183594 149.605469 266.183594 147.628906 C 266.183594 145.648438 267.941406 144.113281 269.917969 144.113281 L 338.898438 144.113281 C 340.875 144.113281 342.414062 145.648438 342.414062 147.628906 C 342.414062 149.605469 340.875 151.363281 338.898438 151.363281 Z M 338.898438 151.363281 " fill-opacity="1" fill-rule="evenodd"/><path fill="#feda15" d="M 354.9375 167.617188 C 344.171875 167.617188 335.164062 158.613281 335.164062 147.628906 C 335.164062 136.644531 344.171875 127.855469 354.9375 127.855469 C 365.921875 127.855469 374.925781 136.644531 374.925781 147.628906 C 374.925781 158.613281 365.921875 167.617188 354.9375 167.617188 Z M 354.9375 167.617188 " fill-opacity="1" fill-rule="evenodd"/><path fill="#feda15" d="M 290.570312 191.125 L 269.917969 191.125 C 267.941406 191.125 266.183594 189.585938 266.183594 187.390625 C 266.183594 185.414062 267.941406 183.875 269.917969 183.875 L 290.570312 183.875 C 292.546875 183.875 294.082031 185.414062 294.082031 187.390625 C 294.082031 189.585938 292.546875 191.125 290.570312 191.125 Z M 290.570312 191.125 " fill-opacity="1" fill-rule="evenodd"/><path fill="#feda15" d="M 306.605469 207.382812 C 295.839844 207.382812 286.835938 198.375 286.835938 187.390625 C 286.835938 176.625 295.839844 167.617188 306.605469 167.617188 C 317.589844 167.617188 326.597656 176.625 326.597656 187.390625 C 326.597656 198.375 317.589844 207.382812 306.605469 207.382812 Z M 306.605469 207.382812 " fill-opacity="1" fill-rule="evenodd"/><path fill="#feda15" d="M 338.898438 230.667969 L 269.917969 230.667969 C 267.941406 230.667969 266.183594 229.128906 266.183594 226.933594 C 266.183594 224.957031 267.941406 223.417969 269.917969 223.417969 L 338.898438 223.417969 C 340.875 223.417969 342.414062 224.957031 342.414062 226.933594 C 342.414062 229.128906 340.875 230.667969 338.898438 230.667969 Z M 338.898438 230.667969 " fill-opacity="1" fill-rule="evenodd"/><path fill="#feda15" d="M 354.9375 246.925781 C 344.171875 246.925781 335.164062 237.917969 335.164062 226.933594 C 335.164062 216.167969 344.171875 207.160156 354.9375 207.160156 C 365.921875 207.160156 374.925781 216.167969 374.925781 226.933594 C 374.925781 237.917969 365.921875 246.925781 354.9375 246.925781 Z M 354.9375 246.925781 " fill-opacity="1" fill-rule="evenodd"/><path fill="#feda15" d="M 170.402344 342.488281 C 168.425781 342.488281 166.667969 340.949219 166.667969 338.972656 L 166.667969 256.152344 C 166.667969 253.953125 168.425781 252.417969 170.402344 252.417969 C 172.378906 252.417969 173.917969 253.953125 173.917969 256.152344 L 173.917969 338.972656 C 173.917969 340.949219 172.378906 342.488281 170.402344 342.488281 Z M 170.402344 342.488281 " fill-opacity="1" fill-rule="evenodd"/><path fill="#feda15" d="M 170.402344 375 C 159.417969 375 150.410156 365.992188 150.410156 355.007812 C 150.410156 344.023438 159.417969 335.238281 170.402344 335.238281 C 181.386719 335.238281 190.171875 344.023438 190.171875 355.007812 C 190.171875 365.992188 181.386719 375 170.402344 375 Z M 170.402344 375 " fill-opacity="1" fill-rule="evenodd"/><path fill="#feda15" d="M 209.285156 293.9375 C 207.308594 293.9375 205.550781 292.398438 205.550781 290.421875 L 205.550781 256.152344 C 205.550781 253.953125 207.308594 252.417969 209.285156 252.417969 C 211.261719 252.417969 213.019531 253.953125 213.019531 256.152344 L 213.019531 290.421875 C 213.019531 292.398438 211.261719 293.9375 209.285156 293.9375 Z M 209.285156 293.9375 " fill-opacity="1" fill-rule="evenodd"/><path fill="#feda15" d="M 209.285156 326.449219 C 198.300781 326.449219 189.515625 317.441406 189.515625 306.457031 C 189.515625 295.472656 198.300781 286.6875 209.285156 286.6875 C 220.269531 286.6875 229.058594 295.472656 229.058594 306.457031 C 229.058594 317.441406 220.269531 326.449219 209.285156 326.449219 Z M 209.285156 326.449219 " fill-opacity="1" fill-rule="evenodd"/><path fill="#feda15" d="M 287.273438 329.085938 L 263.988281 329.085938 C 253.222656 329.085938 244.433594 320.519531 244.433594 309.753906 L 244.433594 256.152344 C 244.433594 253.953125 246.191406 252.417969 248.167969 252.417969 C 250.148438 252.417969 251.90625 253.953125 251.90625 256.152344 L 251.90625 309.753906 C 251.90625 316.34375 257.394531 321.835938 263.988281 321.835938 L 287.273438 321.835938 C 289.25 321.835938 291.007812 323.375 291.007812 325.570312 C 291.007812 327.546875 289.25 329.085938 287.273438 329.085938 Z M 287.273438 329.085938 " fill-opacity="1" fill-rule="evenodd"/><path fill="#feda15" d="M 303.53125 345.34375 C 292.546875 345.34375 283.539062 336.335938 283.539062 325.570312 C 283.539062 314.585938 292.546875 305.578125 303.53125 305.578125 C 314.515625 305.578125 323.300781 314.585938 323.300781 325.570312 C 323.300781 336.335938 314.515625 345.34375 303.53125 345.34375 Z M 303.53125 345.34375 " fill-opacity="1" fill-rule="evenodd"/><path fill="#feda15" d="M 115.699219 329.085938 L 92.414062 329.085938 C 90.21875 329.085938 88.679688 327.546875 88.679688 325.570312 C 88.679688 323.375 90.21875 321.835938 92.414062 321.835938 L 115.699219 321.835938 C 122.292969 321.835938 127.78125 316.34375 127.78125 309.753906 L 127.78125 256.152344 C 127.78125 253.953125 129.320312 252.417969 131.519531 252.417969 C 133.496094 252.417969 135.03125 253.953125 135.03125 256.152344 L 135.03125 309.753906 C 135.03125 320.519531 126.464844 329.085938 115.699219 329.085938 Z M 115.699219 329.085938 " fill-opacity="1" fill-rule="evenodd"/><path fill="#feda15" d="M 76.15625 345.34375 C 65.171875 345.34375 56.386719 336.335938 56.386719 325.570312 C 56.386719 314.585938 65.171875 305.578125 76.15625 305.578125 C 87.140625 305.578125 95.929688 314.585938 95.929688 325.570312 C 95.929688 336.335938 87.140625 345.34375 76.15625 345.34375 Z M 76.15625 345.34375 " fill-opacity="1" fill-rule="evenodd"/><path fill="#feda15" d="M 109.769531 151.363281 L 40.789062 151.363281 C 38.8125 151.363281 37.054688 149.824219 37.054688 147.847656 C 37.054688 145.648438 38.8125 144.113281 40.789062 144.113281 L 109.769531 144.113281 C 111.746094 144.113281 113.285156 145.648438 113.285156 147.847656 C 113.285156 149.824219 111.746094 151.363281 109.769531 151.363281 Z M 109.769531 151.363281 " fill-opacity="1" fill-rule="evenodd"/><g clip-path="url(#ffaddea1a6)"><path fill="#feda15" d="M 24.53125 167.617188 C 13.765625 167.617188 4.761719 158.832031 4.761719 147.847656 C 4.761719 136.863281 13.765625 127.855469 24.53125 127.855469 C 35.515625 127.855469 44.523438 136.863281 44.523438 147.847656 C 44.523438 158.832031 35.515625 167.617188 24.53125 167.617188 Z M 24.53125 167.617188 " fill-opacity="1" fill-rule="evenodd"/></g><path fill="#feda15" d="M 109.769531 191.125 L 89.117188 191.125 C 87.140625 191.125 85.382812 189.585938 85.382812 187.609375 C 85.382812 185.632812 87.140625 183.875 89.117188 183.875 L 109.769531 183.875 C 111.746094 183.875 113.285156 185.632812 113.285156 187.609375 C 113.285156 189.585938 111.746094 191.125 109.769531 191.125 Z M 109.769531 191.125 " fill-opacity="1" fill-rule="evenodd"/><path fill="#feda15" d="M 72.863281 207.382812 C 61.878906 207.382812 53.089844 198.59375 53.089844 187.609375 C 53.089844 176.625 61.878906 167.617188 72.863281 167.617188 C 83.847656 167.617188 92.851562 176.625 92.851562 187.609375 C 92.851562 198.59375 83.847656 207.382812 72.863281 207.382812 Z M 72.863281 207.382812 " fill-opacity="1" fill-rule="evenodd"/><path fill="#feda15" d="M 109.769531 230.886719 L 40.789062 230.886719 C 38.8125 230.886719 37.054688 229.128906 37.054688 227.152344 C 37.054688 225.175781 38.8125 223.417969 40.789062 223.417969 L 109.769531 223.417969 C 111.746094 223.417969 113.285156 225.175781 113.285156 227.152344 C 113.285156 229.128906 111.746094 230.886719 109.769531 230.886719 Z M 109.769531 230.886719 " fill-opacity="1" fill-rule="evenodd"/><g clip-path="url(#18509637a0)"><path fill="#feda15" d="M 24.53125 246.925781 C 13.765625 246.925781 4.761719 238.136719 4.761719 227.152344 C 4.761719 216.167969 13.765625 207.382812 24.53125 207.382812 C 35.515625 207.382812 44.523438 216.167969 44.523438 227.152344 C 44.523438 238.136719 35.515625 246.925781 24.53125 246.925781 Z M 24.53125 246.925781 " fill-opacity="1" fill-rule="evenodd"/></g></svg>